{"title":"Chelsea s01e11 720p WEBRip x264-TheRival","uid":14763415,"size":443894706,"categoryP":"video","categoryS":"hd___tv_shows","magnet":"?xt=urn:btih:f348a67e6871ebb6c490590b6572ebab29474cff&amp;dn=Chelsea+s01e11+720p+WEBRip+x264-TheRival&amp;tr=udp%3A%2F%2Ftracker.leechers-paradise.org%3A6969&amp;tr=udp%3A%2F%2Fzer0day.ch%3A1337&amp;tr=udp%3A%2F%2Fopen.demonii.com%3A1337&amp;tr=udp%3A%2F%2Ftracker.coppersurfer.tk%3A6969&amp;tr=udp%3A%2F%2Fexodus.desync.com%3A6969","seeders":5,"leechers":0,"uploader":"TheRival","files":1,"time":1464868114,"description":"Summary:\r\nHandler goes international and immerses herself in local culture in her search for knowledge. Chelsea features celebrities, dignitaries, and surprise guests, but as you've never seen them before: engaging in thought-provoking, yet hilarious conversations about topics like international cultures, alternative lifestyles, education, health, sports, parenting, politics, and more.\r\n\r\nScreens: \nhttp://extraimago.com/image/aZTF \nhttp://extraimago.com/image/aZTH \nhttp://extraimago.com/image/aZTk \nhttp://extraimago.com/image/aZTo\r\n\r\nVideo\r\nID : 1\r\nFormat : AVC\r\nFormat/Info : Advanced Video Codec\r\nFormat profile :   \r\nFormat settings, CABAC : Yes\r\nFormat settings, ReFrames : 2 frames\r\nFormat settings, GOP : M=1, N=24\r\nCodec ID : avc1\r\nCodec ID/Info : Advanced Video Coding\r\nDuration : 28mn 43s\r\nBit rate mode : Variable\r\nBit rate : 1 927 Kbps\r\nMaximum bit rate : 3 000 Kbps\r\nWidth : 1 280 pixels\r\nHeight : 720 pixels\r\nDisplay aspect ratio : 16:9\r\nFrame rate mode : Constant\r\nFrame rate : 29.970 (30000/1001) fps\r\nColor space : YUV\r\nChroma subsampling : 4:2:0\r\nBit depth : 8 bits\r\nScan type : Progressive\r\nBits/(Pixel*Frame) : 0.070\r\nStream size : 396 MiB (94%)\r\nEncoded date : UTC 2016-06-02 09:00:42\r\nTagged date : UTC 2016-06-02 09:05:13\r\nColor primaries : BT.709\r\nTransfer characteristics : BT.709\r\nMatrix coefficients : BT.709\r\n\r\nAudio\r\nID : 2\r\nFormat : AAC\r\nFormat/Info : Advanced Audio Codec\r\nFormat profile : LC\r\nCodec ID : 40\r\nDuration : 28mn 43s\r\nBit rate mode : Variable\r\nBit rate : 128 Kbps\r\nMaximum bit rate : 132 Kbps\r\nChannel(s) : 2 channels\r\nChannel positions : Front: L R\r\nSampling rate : 48.0 KHz\r\nFrame rate : 46.875 fps (1024 spf)\r\nCompression mode : Lossy\r\nStream size : 26.3 MiB (6%)\r\nTitle : English (aac 2.0)\r\nLanguage : English\r\nDefault : Yes\r\nAlternate group : 1","torrent":{"xt":"urn:btih:f348a67e6871ebb6c490590b6572ebab29474cff","amp;dn":"Chelsea+s01e11+720p+WEBRip+x264-TheRival","amp;tr":["udp%3A%2F%2Ftracker.leechers-paradise.org%3A6969","udp%3A%2F%2Fzer0day.ch%3A1337","udp%3A%2F%2Fopen.demonii.com%3A1337","udp%3A%2F%2Ftracker.coppersurfer.tk%3A6969","udp%3A%2F%2Fexodus.desync.com%3A6969"],"infoHash":"f348a67e6871ebb6c490590b6572ebab29474cff","infoHashBuffer":{"type":"Buffer","data":[243,72,166,126,104,113,235,182,196,144,89,11,101,114,235,171,41,71,76,255]},"announce":[],"urlList":[]}}